<svg xmlns="http://www.w3.org/2000/svg" viewBox="0 0 114.52 110.91"><defs><style>.cls-1{fill:#77c159;}</style></defs><g id="Слой_2" data-name="Слой 2"><g id="Layer_1" data-name="Layer 1"><path class="cls-1" d="M67.7,6.58l.86-1.29L69.42,4l1.9-2.85a.71.71,0,0,0-.21-1,.71.71,0,0,0-1,.21l-2,3-.86,1.29L66.32,6A25.62,25.62,0,0,0,48.23,6l-.86-1.28-.86-1.29-2-3A.78.78,0,0,0,43.44.14a.78.78,0,0,0-.21,1L45.13,4,46,5.29l.86,1.29C40.41,9.58,36,15.26,36,21.79H78.56C78.53,15.26,74.17,9.58,67.7,6.58ZM48.14,15.69a2.27,2.27,0,1,1,2.27-2.27A2.27,2.27,0,0,1,48.14,15.69Zm18.21,0a2.27,2.27,0,1,1,2.27-2.27A2.23,2.23,0,0,1,66.35,15.69Z"/><path class="cls-1" d="M36.3,24.8l-.34,0V58.26a4.8,4.8,0,0,0,4.81,4.81h3.47a4.41,4.41,0,0,0-.18,1.26V74a4.57,4.57,0,1,0,9.14,0V64.33A4.09,4.09,0,0,0,53,63.07h8.47a4.09,4.09,0,0,0-.19,1.26V74a4.57,4.57,0,0,0,9.14,0V64.33a4.41,4.41,0,0,0-.18-1.26h3.46a4.8,4.8,0,0,0,4.82-4.81V24.8H36.3Z"/><path class="cls-1" d="M28.38,24.83a4.58,4.58,0,0,0-4.57,4.57V48.9a4.57,4.57,0,0,0,9.14,0V29.4A4.57,4.57,0,0,0,28.38,24.83Z"/><path class="cls-1" d="M86.14,24.83a4.58,4.58,0,0,0-4.57,4.57V48.9a4.57,4.57,0,1,0,9.14,0V29.4A4.58,4.58,0,0,0,86.14,24.83Z"/><path class="cls-1" d="M0,101.69a10,10,0,0,1,.65-3.63,8.89,8.89,0,0,1,1.82-2.93,8.47,8.47,0,0,1,2.8-2,8.92,8.92,0,0,1,3.57-.71,8.06,8.06,0,0,1,2.68.43,7.35,7.35,0,0,1,2.33,1.43V92.81h4.41v17.75H13.85v-1.51a7.35,7.35,0,0,1-2.33,1.43,8.06,8.06,0,0,1-2.68.43,8.92,8.92,0,0,1-3.57-.71,8.47,8.47,0,0,1-2.8-2,8.89,8.89,0,0,1-1.82-2.93A10,10,0,0,1,0,101.69Zm9.41,5.08a5.36,5.36,0,0,0,1.1-.12,4.84,4.84,0,0,0,1.15-.38,5.42,5.42,0,0,0,1.14-.72,6.23,6.23,0,0,0,1-1.11V98.93a5.83,5.83,0,0,0-1-1.1,5.42,5.42,0,0,0-1.14-.72,4.47,4.47,0,0,0-1.15-.39,5.36,5.36,0,0,0-1.1-.12A4.84,4.84,0,0,0,6,98.05a4.87,4.87,0,0,0-1,1.62,5.3,5.3,0,0,0-.38,2,5.38,5.38,0,0,0,.38,2,4.93,4.93,0,0,0,1,1.61,4.84,4.84,0,0,0,3.46,1.45Z"/><path class="cls-1" d="M29.27,96.84a3.72,3.72,0,0,0-3.9,3.63v10.09H21v-10a8.43,8.43,0,0,1,8.24-8.13h.13a8.43,8.43,0,0,1,8.24,8.13v10H33.16V100.47a3.72,3.72,0,0,0-3.9-3.63"/><path class="cls-1" d="M39.65,101.69a10,10,0,0,1,.65-3.63,9.06,9.06,0,0,1,1.82-2.93,8.57,8.57,0,0,1,2.8-2,8.92,8.92,0,0,1,3.57-.71,8.16,8.16,0,0,1,2.69.43,7.24,7.24,0,0,1,2.33,1.41V87.48h4.4v23.08h-4.4v-1.49a6.9,6.9,0,0,1-2.33,1.41,7.91,7.91,0,0,1-2.69.43,8.92,8.92,0,0,1-3.57-.71,8.57,8.57,0,0,1-2.8-2,9.06,9.06,0,0,1-1.82-2.93,10,10,0,0,1-.65-3.62Zm9.42,5.08a5.34,5.34,0,0,0,1.09-.12,4.84,4.84,0,0,0,1.15-.38,5.42,5.42,0,0,0,1.14-.72,6.64,6.64,0,0,0,1.06-1.11V98.93a6.2,6.2,0,0,0-1.06-1.1,5.42,5.42,0,0,0-1.14-.72,4.47,4.47,0,0,0-1.15-.39,5.34,5.34,0,0,0-1.09-.12,4.84,4.84,0,0,0-3.47,1.45,5,5,0,0,0-1,1.62,5.3,5.3,0,0,0-.38,2,5.38,5.38,0,0,0,.38,2,5.1,5.1,0,0,0,1,1.61,4.84,4.84,0,0,0,3.47,1.45Z"/><path class="cls-1" d="M78.53,106.77a4.74,4.74,0,0,0,1.87-.38,4.6,4.6,0,0,0,1.52-1,4.84,4.84,0,0,0,1-1.6,5.62,5.62,0,0,0,.37-2,5.41,5.41,0,0,0-.38-2,5.07,5.07,0,0,0-1-1.61A4.75,4.75,0,0,0,80.37,97a4.44,4.44,0,0,0-1.84-.39,4.49,4.49,0,0,0-1.86.39A4.75,4.75,0,0,0,75.14,98a5.23,5.23,0,0,0-1,1.61,5.76,5.76,0,0,0,0,4.09,4.84,4.84,0,0,0,1,1.6,4.6,4.6,0,0,0,1.52,1,4.75,4.75,0,0,0,1.88.38Zm0,4.14a9.52,9.52,0,0,1-3.62-.69,9.31,9.31,0,0,1-3-1.94,9.18,9.18,0,0,1-2-2.93,9.06,9.06,0,0,1-.73-3.66,8.89,8.89,0,0,1,.73-3.61,9.33,9.33,0,0,1,5-4.9,9.51,9.51,0,0,1,7.26,0,9.41,9.41,0,0,1,3,2,9.19,9.19,0,0,1,2,2.93,8.74,8.74,0,0,1,.74,3.61,8.9,8.9,0,0,1-.74,3.66,9,9,0,0,1-2,2.93,9.27,9.27,0,0,1-3,1.94,9.48,9.48,0,0,1-3.62.69Z"/><path class="cls-1" d="M92,91.42a2.52,2.52,0,0,1-1-.21,2.79,2.79,0,0,1-.83-.57,2.71,2.71,0,0,1-.57-.84,2.44,2.44,0,0,1-.21-1,2.52,2.52,0,0,1,.21-1,2.71,2.71,0,0,1,.57-.84,2.79,2.79,0,0,1,.83-.57,2.52,2.52,0,0,1,1-.21,2.59,2.59,0,0,1,1,.21,2.7,2.7,0,0,1,1.41,1.41,2.52,2.52,0,0,1,.21,1,2.44,2.44,0,0,1-.21,1,2.7,2.7,0,0,1-1.41,1.41,2.59,2.59,0,0,1-1,.21Z"/><path class="cls-1" d="M89.83,92.81h4.41v17.75H89.83Z"/><path class="cls-1" d="M96.26,101.69a10,10,0,0,1,.65-3.63,9.06,9.06,0,0,1,1.82-2.93,8.57,8.57,0,0,1,2.8-2,8.94,8.94,0,0,1,3.58-.71,8.14,8.14,0,0,1,2.68.43,7.24,7.24,0,0,1,2.33,1.41V87.48h4.4v23.08h-4.4v-1.49a6.9,6.9,0,0,1-2.33,1.41,7.89,7.89,0,0,1-2.68.43,8.94,8.94,0,0,1-3.58-.71,8.57,8.57,0,0,1-2.8-2,9.06,9.06,0,0,1-1.82-2.93,10,10,0,0,1-.65-3.62Zm9.42,5.08a5.34,5.34,0,0,0,1.09-.12,4.7,4.7,0,0,0,1.15-.38,5.42,5.42,0,0,0,1.14-.72,6.64,6.64,0,0,0,1.06-1.11V98.93a6.2,6.2,0,0,0-1.06-1.1,5.42,5.42,0,0,0-1.14-.72,4.34,4.34,0,0,0-1.15-.39,5.34,5.34,0,0,0-1.09-.12,4.84,4.84,0,0,0-3.47,1.45,5,5,0,0,0-1,1.62,5.3,5.3,0,0,0-.37,2,5.37,5.37,0,0,0,.37,2,5.1,5.1,0,0,0,1,1.61,4.84,4.84,0,0,0,3.47,1.45Z"/><path class="cls-1" d="M68.77,96.79c-3,0-4.26,1.52-4.26,3.68v10.09h-4.4v-10c0-4.15,2.43-8.24,8.66-8.24"/></g></g></svg>