<svg xmlns="http://www.w3.org/2000/svg" xmlns:xlink="http://www.w3.org/1999/xlink" viewBox="0 0 109.61 109.61"><defs><style>.cls-1{fill:url(#linear-gradient);}.cls-2{fill:#fff;}</style><linearGradient id="linear-gradient" x1="3234.49" y1="5972.88" x2="3234.49" y2="5968.5" gradientTransform="matrix(25, 0, 0, -25, -80807.33, 149322)" gradientUnits="userSpaceOnUse"><stop offset="0" stop-color="#2ac9fa"/><stop offset="1" stop-color="#1f65eb"/></linearGradient></defs><g id="Слой_2" data-name="Слой 2"><g id="Layer_1" data-name="Layer 1"><circle class="cls-1" cx="54.81" cy="54.81" r="54.81"/><path class="cls-2" d="M64.38,26.05a4.3,4.3,0,1,0-7.45-4.31l-2.06,3.61L52.8,21.74a4.3,4.3,0,1,0-7.45,4.31l4.55,8L35.49,59.17H23.87a4.32,4.32,0,0,0,0,8.64H64.33a7,7,0,0,0,.33-4,6.51,6.51,0,0,0-6.51-4.62H45.41Z"/><path class="cls-2" d="M37.72,72.59A9.86,9.86,0,0,0,33.91,70a6.93,6.93,0,0,0-4.71.11L26,75.73A4.3,4.3,0,1,0,33.45,80Z"/><path class="cls-2" d="M79.19,67.81h6.55a4.32,4.32,0,0,0,0-8.64H74.24L61.29,36.57a10.63,10.63,0,0,0-3.08,5.92A14.43,14.43,0,0,0,60,51.61Q68.13,65.83,76.28,80a4.3,4.3,0,1,0,7.45-4.31Z"/></g></g></svg>